<svg width="300" height="200" viewBox="0 0 300 200" fill="none" xmlns="http://www.w3.org/2000/svg">
<path d="M157.5 185.714C153.214 189 167.643 201.143 132.214 188.357C96.8571 175.571 82.4286 131 75.2143 106.429C68 81.8572 87.3571 48.4286 100.143 38.9286C112.929 29.4286 136.5 25.5 139.143 25.1429C141.714 24.8572 145.357 23.2143 151.571 17C157.786 10.7857 177.429 4.2143 191.571 7.14288C205.643 10.0714 240.714 43.5 263.929 90.7143C287.214 137.857 255.786 171.643 250.214 171.643C244.643 171.643 212.5 150 209.571 147.357C206.643 144.786 199.429 144.071 194.143 142.143C188.929 140.143 176.786 125.786 176.786 125.786C178.786 161.786 161.714 182.429 157.5 185.714Z" fill="#EAB363"/>
<path d="M143.714 190.286C136.143 190.286 116.5 176.571 95.5714 147.714C74.5714 118.857 80.5 78.5715 80.5 78.5715C76.5714 139.857 148 187.357 148 187.357C148 187.357 151.214 190.286 143.714 190.286Z" fill="#8C5E28"/>
<path d="M194.143 142.143C188.929 140.143 176.786 125.786 176.786 125.786C176.786 125.786 171.214 66.7858 176.786 40.9286C182.357 15 185.286 14.7143 189.214 23.2143C192.786 30.8572 193.929 113.643 206.286 145.571C202.786 144.286 197.929 143.571 194.143 142.143Z" fill="#E2942D"/>
<path d="M138.143 27.1429C138.143 27.1429 127 36.2857 124.714 37C122.429 37.6429 96.5 51.0715 89.3571 65.1429C82.1429 79.2143 86.7143 57.6429 94.2143 50.0715C101.786 42.5715 120.429 29.0715 138.143 27.1429Z" fill="#8C5E28"/>
<path d="M131.071 174.071C86.9286 198 34.6429 198.214 34.6429 198.214C40.5 183.429 23.5714 158.357 23.5714 158.357C72.2143 163.5 104.214 145.571 104.214 145.571C105.357 147.071 131.071 174.071 131.071 174.071Z" fill="#E6E6E6"/>
<path opacity="0.1" d="M131.071 174.071C117.571 181.357 103.357 186.429 90.0714 190C85.2143 172.643 73.9286 162.786 64.8571 157.5C89.5 153.786 104.214 145.571 104.214 145.571C105.357 147.071 131.071 174.071 131.071 174.071Z" fill="black"/>
<path d="M157.214 33.1429C150.286 46.3572 131.857 38.3572 136 38.1429C140.143 37.9286 152.571 20.8572 160.857 15.1429C169.214 9.42858 191.571 7.14286 194.071 10.7143C196.643 14.2857 189.5 14.8572 181.214 15.1429C172.857 15.3572 167.357 57.2857 167.357 57.2857C152.143 49.4286 164.143 19.9286 157.214 33.1429Z" fill="#F4CD9A"/>
</svg>
